<svg xmlns="http://www.w3.org/2000/svg"><g fill="#61DAFB"><path class="cls-1" fill="#cf3d3e" stroke="0px" d="m25.78,5.72c.24,4.06-1.11,6.7-4.03,10.75-.29.4-.64.85-1.01,1.35-1.85,2.41-4.38,5.72-4.75,9.04-.26,2.38.58,5.92,3.79,8.05,2.7,1.79,5.61,1.84,8.63.13,3.97-2.24,4.43-5.88,4.35-7.85-.03-.66-.13-1.51-.24-2.42-.51-4.27-1.37-11.42,5.09-13.21,6.57-1.83,9.45,4.58,10.83,7.65.22.48.42.93.62,1.32.19.38.94,1.66,2.35,2.1,1.21.37,2.72.08,4.49-.88.12-.08.35-.23.55-.37C53.2,9.07,42.01,0,28.69,0c-1.47,0-2.92.11-4.34.33.6,1.32,1.29,3.25,1.42,5.39Z"/>
<path class="cls-1" fill="#cf3d3e" stroke="0px" d="m49.89,27.54c-3.26-1-4.88-3.61-5.43-4.68-.23-.45-.47-.97-.72-1.54-1.9-4.23-2.97-5.3-4.76-4.81-1.87.52-1.93,2.88-1.36,7.64.12,1.01.23,1.96.27,2.82.1,2.53-.37,8.81-6.96,12.53-2.26,1.28-4.58,1.91-6.86,1.91-2.47,0-4.89-.74-7.13-2.23-4.23-2.8-6.61-7.86-6.06-12.89.52-4.75,3.68-8.88,5.78-11.61.35-.45.66-.86.93-1.23,2.77-3.83,3.2-5.21,3.06-7.43-.12-1.95-1.04-3.76-1.41-4.42C8.04,5.51,0,16.16,0,28.69c0,15.85,12.85,28.69,28.69,28.69s28.69-12.85,28.69-28.69c0-.65-.03-1.29-.07-1.92-2.65,1.21-5.14,1.47-7.42.76Z"/></g></svg>